<mxfile host="app.diagrams.net" agent="Mozilla/5.0 (Macintosh; Intel Mac OS X 10_15_7) AppleWebKit/537.36 (KHTML, like Gecko) Chrome/130.0.0.0 Safari/537.36" version="24.8.6">
  <diagram id="C5RBs43oDa-KdzZeNtuy" name="Page-1">
    <mxGraphModel dx="2233" dy="1780" grid="1" gridSize="10" guides="1" tooltips="1" connect="1" arrows="1" fold="1" page="1" pageScale="1" pageWidth="827" pageHeight="1169" math="0" shadow="0">
      <root>
        <mxCell id="WIyWlLk6GJQsqaUBKTNV-0" />
        <mxCell id="WIyWlLk6GJQsqaUBKTNV-1" parent="WIyWlLk6GJQsqaUBKTNV-0" />
        <mxCell id="bM3Q_ZAt68AQXPIP-MQu-3" value="" style="edgeStyle=orthogonalEdgeStyle;rounded=0;orthogonalLoop=1;jettySize=auto;html=1;" edge="1" parent="WIyWlLk6GJQsqaUBKTNV-1" source="bM3Q_ZAt68AQXPIP-MQu-0" target="bM3Q_ZAt68AQXPIP-MQu-2">
          <mxGeometry relative="1" as="geometry" />
        </mxCell>
        <mxCell id="bM3Q_ZAt68AQXPIP-MQu-0" value="Halaman Awal" style="rounded=0;whiteSpace=wrap;html=1;" vertex="1" parent="WIyWlLk6GJQsqaUBKTNV-1">
          <mxGeometry x="1090" y="215" width="120" height="60" as="geometry" />
        </mxCell>
        <mxCell id="bM3Q_ZAt68AQXPIP-MQu-1" value="" style="endArrow=classic;html=1;rounded=0;entryX=0;entryY=0.5;entryDx=0;entryDy=0;" edge="1" parent="WIyWlLk6GJQsqaUBKTNV-1" target="bM3Q_ZAt68AQXPIP-MQu-0">
          <mxGeometry width="50" height="50" relative="1" as="geometry">
            <mxPoint x="1030" y="245" as="sourcePoint" />
            <mxPoint x="710" y="525" as="targetPoint" />
          </mxGeometry>
        </mxCell>
        <mxCell id="bM3Q_ZAt68AQXPIP-MQu-6" value="" style="edgeStyle=orthogonalEdgeStyle;rounded=0;orthogonalLoop=1;jettySize=auto;html=1;" edge="1" parent="WIyWlLk6GJQsqaUBKTNV-1" source="bM3Q_ZAt68AQXPIP-MQu-2" target="bM3Q_ZAt68AQXPIP-MQu-5">
          <mxGeometry relative="1" as="geometry" />
        </mxCell>
        <mxCell id="bM3Q_ZAt68AQXPIP-MQu-8" value="" style="edgeStyle=orthogonalEdgeStyle;rounded=0;orthogonalLoop=1;jettySize=auto;html=1;" edge="1" parent="WIyWlLk6GJQsqaUBKTNV-1" source="bM3Q_ZAt68AQXPIP-MQu-2" target="bM3Q_ZAt68AQXPIP-MQu-7">
          <mxGeometry relative="1" as="geometry" />
        </mxCell>
        <mxCell id="bM3Q_ZAt68AQXPIP-MQu-2" value="Punya&lt;div&gt;Akun?&lt;/div&gt;" style="rhombus;whiteSpace=wrap;html=1;rounded=0;" vertex="1" parent="WIyWlLk6GJQsqaUBKTNV-1">
          <mxGeometry x="1090" y="315" width="120" height="80" as="geometry" />
        </mxCell>
        <mxCell id="bM3Q_ZAt68AQXPIP-MQu-14" style="edgeStyle=orthogonalEdgeStyle;rounded=0;orthogonalLoop=1;jettySize=auto;html=1;entryX=1;entryY=0.5;entryDx=0;entryDy=0;" edge="1" parent="WIyWlLk6GJQsqaUBKTNV-1" source="bM3Q_ZAt68AQXPIP-MQu-5" target="bM3Q_ZAt68AQXPIP-MQu-7">
          <mxGeometry relative="1" as="geometry">
            <mxPoint x="1310" y="465" as="targetPoint" />
            <Array as="points">
              <mxPoint x="1310" y="465" />
            </Array>
          </mxGeometry>
        </mxCell>
        <mxCell id="bM3Q_ZAt68AQXPIP-MQu-5" value="&lt;div&gt;Halaman&lt;/div&gt;Register" style="whiteSpace=wrap;html=1;rounded=0;" vertex="1" parent="WIyWlLk6GJQsqaUBKTNV-1">
          <mxGeometry x="1250" y="325" width="120" height="60" as="geometry" />
        </mxCell>
        <mxCell id="bM3Q_ZAt68AQXPIP-MQu-10" value="" style="edgeStyle=orthogonalEdgeStyle;rounded=0;orthogonalLoop=1;jettySize=auto;html=1;" edge="1" parent="WIyWlLk6GJQsqaUBKTNV-1" source="bM3Q_ZAt68AQXPIP-MQu-7" target="bM3Q_ZAt68AQXPIP-MQu-9">
          <mxGeometry relative="1" as="geometry" />
        </mxCell>
        <mxCell id="bM3Q_ZAt68AQXPIP-MQu-7" value="&lt;div&gt;Halaman&lt;/div&gt;Login" style="whiteSpace=wrap;html=1;rounded=0;" vertex="1" parent="WIyWlLk6GJQsqaUBKTNV-1">
          <mxGeometry x="1090" y="435" width="120" height="60" as="geometry" />
        </mxCell>
        <mxCell id="bM3Q_ZAt68AQXPIP-MQu-15" style="edgeStyle=orthogonalEdgeStyle;rounded=0;orthogonalLoop=1;jettySize=auto;html=1;" edge="1" parent="WIyWlLk6GJQsqaUBKTNV-1" source="bM3Q_ZAt68AQXPIP-MQu-9">
          <mxGeometry relative="1" as="geometry">
            <mxPoint x="1310" y="465" as="targetPoint" />
          </mxGeometry>
        </mxCell>
        <mxCell id="bM3Q_ZAt68AQXPIP-MQu-17" value="" style="edgeStyle=orthogonalEdgeStyle;rounded=0;orthogonalLoop=1;jettySize=auto;html=1;" edge="1" parent="WIyWlLk6GJQsqaUBKTNV-1" source="bM3Q_ZAt68AQXPIP-MQu-9" target="bM3Q_ZAt68AQXPIP-MQu-16">
          <mxGeometry relative="1" as="geometry" />
        </mxCell>
        <mxCell id="bM3Q_ZAt68AQXPIP-MQu-9" value="Info Login&lt;div&gt;Benar&lt;/div&gt;" style="rhombus;whiteSpace=wrap;html=1;rounded=0;" vertex="1" parent="WIyWlLk6GJQsqaUBKTNV-1">
          <mxGeometry x="1090" y="535" width="120" height="80" as="geometry" />
        </mxCell>
        <mxCell id="bM3Q_ZAt68AQXPIP-MQu-12" value="Tidak" style="text;html=1;align=center;verticalAlign=middle;resizable=0;points=[];autosize=1;strokeColor=none;fillColor=none;" vertex="1" parent="WIyWlLk6GJQsqaUBKTNV-1">
          <mxGeometry x="1200" y="325" width="50" height="30" as="geometry" />
        </mxCell>
        <mxCell id="bM3Q_ZAt68AQXPIP-MQu-13" value="Ya" style="text;html=1;align=center;verticalAlign=middle;resizable=0;points=[];autosize=1;strokeColor=none;fillColor=none;" vertex="1" parent="WIyWlLk6GJQsqaUBKTNV-1">
          <mxGeometry x="1110" y="395" width="40" height="30" as="geometry" />
        </mxCell>
        <mxCell id="bM3Q_ZAt68AQXPIP-MQu-29" value="" style="edgeStyle=orthogonalEdgeStyle;rounded=0;orthogonalLoop=1;jettySize=auto;html=1;" edge="1" parent="WIyWlLk6GJQsqaUBKTNV-1" source="bM3Q_ZAt68AQXPIP-MQu-16" target="bM3Q_ZAt68AQXPIP-MQu-28">
          <mxGeometry relative="1" as="geometry" />
        </mxCell>
        <mxCell id="bM3Q_ZAt68AQXPIP-MQu-16" value="Halaman&lt;div&gt;Dashboard&lt;/div&gt;" style="whiteSpace=wrap;html=1;rounded=0;" vertex="1" parent="WIyWlLk6GJQsqaUBKTNV-1">
          <mxGeometry x="1090" y="655" width="120" height="60" as="geometry" />
        </mxCell>
        <mxCell id="bM3Q_ZAt68AQXPIP-MQu-18" value="Ya" style="text;html=1;align=center;verticalAlign=middle;resizable=0;points=[];autosize=1;strokeColor=none;fillColor=none;" vertex="1" parent="WIyWlLk6GJQsqaUBKTNV-1">
          <mxGeometry x="1110" y="615" width="40" height="30" as="geometry" />
        </mxCell>
        <mxCell id="bM3Q_ZAt68AQXPIP-MQu-19" value="Tidak" style="text;html=1;align=center;verticalAlign=middle;resizable=0;points=[];autosize=1;strokeColor=none;fillColor=none;" vertex="1" parent="WIyWlLk6GJQsqaUBKTNV-1">
          <mxGeometry x="1210" y="545" width="50" height="30" as="geometry" />
        </mxCell>
        <mxCell id="bM3Q_ZAt68AQXPIP-MQu-26" style="edgeStyle=orthogonalEdgeStyle;rounded=0;orthogonalLoop=1;jettySize=auto;html=1;entryX=1;entryY=0.5;entryDx=0;entryDy=0;" edge="1" parent="WIyWlLk6GJQsqaUBKTNV-1" source="bM3Q_ZAt68AQXPIP-MQu-22" target="bM3Q_ZAt68AQXPIP-MQu-16">
          <mxGeometry relative="1" as="geometry" />
        </mxCell>
        <mxCell id="bM3Q_ZAt68AQXPIP-MQu-22" value="Informasi Antrian" style="rounded=1;whiteSpace=wrap;html=1;" vertex="1" parent="WIyWlLk6GJQsqaUBKTNV-1">
          <mxGeometry x="1271" y="655" width="120" height="60" as="geometry" />
        </mxCell>
        <mxCell id="bM3Q_ZAt68AQXPIP-MQu-27" style="edgeStyle=orthogonalEdgeStyle;rounded=0;orthogonalLoop=1;jettySize=auto;html=1;" edge="1" parent="WIyWlLk6GJQsqaUBKTNV-1" source="bM3Q_ZAt68AQXPIP-MQu-24">
          <mxGeometry relative="1" as="geometry">
            <mxPoint x="1240" y="685" as="targetPoint" />
          </mxGeometry>
        </mxCell>
        <mxCell id="bM3Q_ZAt68AQXPIP-MQu-24" value="Jadwal Dokter" style="rounded=1;whiteSpace=wrap;html=1;" vertex="1" parent="WIyWlLk6GJQsqaUBKTNV-1">
          <mxGeometry x="1271" y="735" width="120" height="60" as="geometry" />
        </mxCell>
        <mxCell id="bM3Q_ZAt68AQXPIP-MQu-31" value="" style="edgeStyle=orthogonalEdgeStyle;rounded=0;orthogonalLoop=1;jettySize=auto;html=1;" edge="1" parent="WIyWlLk6GJQsqaUBKTNV-1" source="bM3Q_ZAt68AQXPIP-MQu-28" target="bM3Q_ZAt68AQXPIP-MQu-30">
          <mxGeometry relative="1" as="geometry" />
        </mxCell>
        <mxCell id="bM3Q_ZAt68AQXPIP-MQu-28" value="Halaman Mendaftar" style="whiteSpace=wrap;html=1;rounded=0;" vertex="1" parent="WIyWlLk6GJQsqaUBKTNV-1">
          <mxGeometry x="1090" y="765" width="120" height="60" as="geometry" />
        </mxCell>
        <mxCell id="bM3Q_ZAt68AQXPIP-MQu-33" style="edgeStyle=orthogonalEdgeStyle;rounded=0;orthogonalLoop=1;jettySize=auto;html=1;entryX=0;entryY=0.5;entryDx=0;entryDy=0;" edge="1" parent="WIyWlLk6GJQsqaUBKTNV-1" source="bM3Q_ZAt68AQXPIP-MQu-30" target="bM3Q_ZAt68AQXPIP-MQu-28">
          <mxGeometry relative="1" as="geometry">
            <Array as="points">
              <mxPoint x="1050" y="915" />
              <mxPoint x="1050" y="795" />
            </Array>
          </mxGeometry>
        </mxCell>
        <mxCell id="bM3Q_ZAt68AQXPIP-MQu-34" style="edgeStyle=orthogonalEdgeStyle;rounded=0;orthogonalLoop=1;jettySize=auto;html=1;entryX=1;entryY=0.5;entryDx=0;entryDy=0;" edge="1" parent="WIyWlLk6GJQsqaUBKTNV-1" source="bM3Q_ZAt68AQXPIP-MQu-30" target="bM3Q_ZAt68AQXPIP-MQu-22">
          <mxGeometry relative="1" as="geometry">
            <Array as="points">
              <mxPoint x="1450" y="915" />
              <mxPoint x="1450" y="685" />
            </Array>
          </mxGeometry>
        </mxCell>
        <mxCell id="bM3Q_ZAt68AQXPIP-MQu-30" value="Informasi sudah sesuai" style="rhombus;whiteSpace=wrap;html=1;rounded=0;" vertex="1" parent="WIyWlLk6GJQsqaUBKTNV-1">
          <mxGeometry x="1090" y="875" width="120" height="80" as="geometry" />
        </mxCell>
      </root>
    </mxGraphModel>
  </diagram>
</mxfile>
